# xmcd
#
# Track frame offsets: 
#        150
#        674
#        17868
#        29607
#        44398
#        64501
#        81548
#        96494
#        114067
#        129494
#        145514
#        167054
#        183418
#        198861
#        220661
#        235589
#        253958
#        269009
#        311197
#
# Disc length: 4433 seconds
#
# Revision: 0
# Processed by: cddbd v1.5.2PL0 Copyright (c) Steve Scherf et al.
# Submitted via: ExactAudioCopy v0.99pb4
#
DISCID=0c114f13
DTITLE=Various Artist - prevue promo 1079A-3
DYEAR=2001
DGENRE=pop
TTITLE0=blank - data
TTITLE1=Blake Shelton - Austin(Mainstream Mix)
TTITLE2=Paul McCartney - Freedom (Live - Applause Fade)
TTITLE3=Barry Manilow - Turn The Radio Up
TTITLE4=Huey Lewis and The News Duet with Wynonna (Judd) - I'm Not In Lo
TTITLE4=ve Yet
TTITLE5=Kaci - Intervention Divine
TTITLE6=Jamiroquai - You Give Me Something
TTITLE7=Craig David - 7 Days(Re-Service)
TTITLE8=Allure - Kool Wit Me
TTITLE9=Garbage - Breaking Up The Girl
TTITLE10=U2 - Peace On Earth
TTITLE11=U2 - In A Little While
TTITLE12=William Topley - Back To Believing
TTITLE13=Raul Malo - Every Little Thing About You
TTITLE14=Van Morrison and Carl Perkins - Sittin' On Top Of The World
TTITLE15=Starsailor - Good Souls
TTITLE16=Marilyn Manson - Tainted Love("Not Another Teen Movie" Movie)
TTITLE17=Tool - Lateralis
TTITLE18=Ozzy Osbourne - Dreamer
EXTD=
EXTT0=
EXTT1=
EXTT2=
EXTT3=
EXTT4=
EXTT5=
EXTT6=
EXTT7=
EXTT8=
EXTT9=
EXTT10=
EXTT11=
EXTT12=
EXTT13=
EXTT14=
EXTT15=
EXTT16=
EXTT17=
EXTT18=
PLAYORDER=
